<svg xmlns="http://www.w3.org/2000/svg" xmlns:xlink="http://www.w3.org/1999/xlink" viewBox="0 0 343.12 85.06"><defs><style>.cls-1{fill:#999b9e;stroke:#2e3192;stroke-miterlimit:10;stroke-width:1.4px;}.cls-2{fill:url(#Gradiente_sem_nome_6);}.cls-3{fill:url(#Gradiente_sem_nome_6-2);}.cls-4{fill:url(#Gradiente_sem_nome_6-4);}.cls-5{fill:url(#Gradiente_sem_nome_6-5);}.cls-6{fill:#101029;}</style><linearGradient id="Gradiente_sem_nome_6" x1="0.7" y1="220.33" x2="342.42" y2="220.33" gradientTransform="matrix(1, 0, 0, -1, 0, 254.61)" gradientUnits="userSpaceOnUse"><stop offset="0.14" stop-color="#4372b8" stop-opacity="0.9"/><stop offset="0.29" stop-color="#3a52a4"/><stop offset="0.44" stop-color="#293693" stop-opacity="0.94"/><stop offset="0.71" stop-color="#1d1a55"/><stop offset="0.85" stop-color="#101029"/></linearGradient><linearGradient id="Gradiente_sem_nome_6-2" x1="0.69" y1="214.6" x2="342.41" y2="214.6" xlink:href="#Gradiente_sem_nome_6"/><linearGradient id="Gradiente_sem_nome_6-4" x1="0.69" y1="222.38" x2="342.41" y2="222.38" xlink:href="#Gradiente_sem_nome_6"/><linearGradient id="Gradiente_sem_nome_6-5" x1="0.69" y1="220.33" x2="342.41" y2="220.33" xlink:href="#Gradiente_sem_nome_6"/></defs><title>Ativo 1</title><g id="Camada_2" data-name="Camada 2"><g id="Layer_1" data-name="Layer 1"><path class="cls-1" d="M28.28,63.75V13.64H.7V4.8H65.6v8.84H38V63.75Z"/><path class="cls-1" d="M77.81,62.28a12.16,12.16,0,0,1-4.28-3.89,9.28,9.28,0,0,1-1.62-5.28V26.91a9.28,9.28,0,0,1,1.62-5.28,12.16,12.16,0,0,1,4.28-3.89,11.8,11.8,0,0,1,5.81-1.47h29.75a12,12,0,0,1,10.14,5.36,9.48,9.48,0,0,1,1.58,5.28V44.43H81.64v8.43a1.88,1.88,0,0,0,.68,1.43,2.27,2.27,0,0,0,1.58.61h41.19v8.84H83.63A11.7,11.7,0,0,1,77.81,62.28Zm3.83-26.12h33.62v-9a1.94,1.94,0,0,0-.63-1.43,2.1,2.1,0,0,0-1.53-.61H83.89a2.27,2.27,0,0,0-1.58.61,1.89,1.89,0,0,0-.68,1.43v9Z"/><path class="cls-1" d="M140.18,62.28a12.16,12.16,0,0,1-4.28-3.89,9.28,9.28,0,0,1-1.62-5.28V26.91a9.28,9.28,0,0,1,1.62-5.28,12.16,12.16,0,0,1,4.28-3.89A11.8,11.8,0,0,1,146,16.27h41.28v8.84h-41a2.27,2.27,0,0,0-1.58.61,1.89,1.89,0,0,0-.68,1.43V52.86a1.88,1.88,0,0,0,.68,1.43,2.27,2.27,0,0,0,1.58.61h41.19v8.84H146A11.7,11.7,0,0,1,140.18,62.28Z"/><path class="cls-1" d="M197.2,63.75V.7h9.74V16.26h31.73a11.8,11.8,0,0,1,5.81,1.47,12.16,12.16,0,0,1,4.28,3.89,9.28,9.28,0,0,1,1.62,5.28V63.75h-9.74V27.15a1.89,1.89,0,0,0-.68-1.43,2.27,2.27,0,0,0-1.58-.61H209.17a2.27,2.27,0,0,0-1.58.61,1.89,1.89,0,0,0-.68,1.43v36.6Z"/><path class="cls-1" d="M257.77,15.44a9.62,9.62,0,0,1,1.58-5.36,11.43,11.43,0,0,1,4.24-3.85,12.29,12.29,0,0,1,5.9-1.43h41.38a12.57,12.57,0,0,1,5.95,1.43,11.4,11.4,0,0,1,4.28,3.85,9.62,9.62,0,0,1,1.58,5.36V63.75h-9.83V43.12H267.51V63.75h-9.73V15.44Zm55.08,18.84V15.69a1.94,1.94,0,0,0-.63-1.43,2.1,2.1,0,0,0-1.53-.61H269.77a2.27,2.27,0,0,0-1.58.61,1.89,1.89,0,0,0-.68,1.43V34.28Z"/><path class="cls-1" d="M332.68,63.75V4.8h9.74v59Z"/><path class="cls-2" d="M28.28,63.75V13.64H.7V4.8H65.6v8.84H38V63.75Z"/><path class="cls-3" d="M77.81,62.28a12.16,12.16,0,0,1-4.28-3.89,9.28,9.28,0,0,1-1.62-5.28V26.91a9.28,9.28,0,0,1,1.62-5.28,12.16,12.16,0,0,1,4.28-3.89,11.8,11.8,0,0,1,5.81-1.47h29.75a12,12,0,0,1,10.14,5.36,9.48,9.48,0,0,1,1.58,5.28V44.43H81.64v8.43a1.88,1.88,0,0,0,.68,1.43,2.27,2.27,0,0,0,1.58.61h41.19v8.84H83.63A11.7,11.7,0,0,1,77.81,62.28Zm3.83-26.12h33.62v-9a1.94,1.94,0,0,0-.63-1.43,2.1,2.1,0,0,0-1.53-.61H83.89a2.27,2.27,0,0,0-1.58.61,1.89,1.89,0,0,0-.68,1.43v9Z"/><path class="cls-3" d="M140.18,62.28a12.16,12.16,0,0,1-4.28-3.89,9.28,9.28,0,0,1-1.62-5.28V26.91a9.28,9.28,0,0,1,1.62-5.28,12.16,12.16,0,0,1,4.28-3.89A11.8,11.8,0,0,1,146,16.27h41.28v8.84h-41a2.27,2.27,0,0,0-1.58.61,1.89,1.89,0,0,0-.68,1.43V52.86a1.88,1.88,0,0,0,.68,1.43,2.27,2.27,0,0,0,1.58.61h41.19v8.84H146A11.7,11.7,0,0,1,140.18,62.28Z"/><path class="cls-4" d="M197.2,63.75V.7h9.74V16.26h31.73a11.8,11.8,0,0,1,5.81,1.47,12.16,12.16,0,0,1,4.28,3.89,9.28,9.28,0,0,1,1.62,5.28V63.75h-9.74V27.15a1.89,1.89,0,0,0-.68-1.43,2.27,2.27,0,0,0-1.58-.61H209.17a2.27,2.27,0,0,0-1.58.61,1.89,1.89,0,0,0-.68,1.43v36.6Z"/><path class="cls-5" d="M257.77,15.44a9.62,9.62,0,0,1,1.58-5.36,11.43,11.43,0,0,1,4.24-3.85,12.29,12.29,0,0,1,5.9-1.43h41.38a12.57,12.57,0,0,1,5.95,1.43,11.4,11.4,0,0,1,4.28,3.85,9.62,9.62,0,0,1,1.58,5.36V63.75h-9.83V43.12H267.51V63.75h-9.73V15.44Zm55.08,18.84V15.69a1.94,1.94,0,0,0-.63-1.43,2.1,2.1,0,0,0-1.53-.61H269.77a2.27,2.27,0,0,0-1.58.61,1.89,1.89,0,0,0-.68,1.43V34.28Z"/><path class="cls-5" d="M332.68,63.75V4.8h9.74v59Z"/><path class="cls-6" d="M53.15,85.05V73.5h11.2v1.73H55v3.18h7.52v1.73H55v3.18h9.35v1.73Z"/><path class="cls-6" d="M68.25,85.05a2.18,2.18,0,0,1-1.11-.28,2.3,2.3,0,0,1-.8-.75,1.94,1.94,0,0,1-.3-1V82.3h1.83v.63a.35.35,0,0,0,.13.28.41.41,0,0,0,.3.12H76a.4.4,0,0,0,.29-.12.38.38,0,0,0,.12-.28V80.56a.38.38,0,0,0-.12-.29.39.39,0,0,0-.29-.11H68.25a2.18,2.18,0,0,1-1.11-.28,2.3,2.3,0,0,1-.8-.75,1.94,1.94,0,0,1-.3-1V75.61a1.89,1.89,0,0,1,.3-1,2.06,2.06,0,0,1,.8-.75,2.18,2.18,0,0,1,1.11-.28h7.81a2.18,2.18,0,0,1,1.11.28,2.3,2.3,0,0,1,.8.75,1.92,1.92,0,0,1,.3,1v.67H76.42v-.63a.38.38,0,0,0-.12-.28.4.4,0,0,0-.29-.12h-7.7a.44.44,0,0,0-.3.12.39.39,0,0,0-.13.28V78a.36.36,0,0,0,.13.29.44.44,0,0,0,.3.11h7.75a2.18,2.18,0,0,1,1.11.28,2.3,2.3,0,0,1,.8.75,1.94,1.94,0,0,1,.3,1V83a1.89,1.89,0,0,1-.3,1,2.14,2.14,0,0,1-.8.75,2.18,2.18,0,0,1-1.11.28Z"/><path class="cls-6" d="M82.3,85.05a2.18,2.18,0,0,1-1.11-.28,2.3,2.3,0,0,1-.8-.75,1.94,1.94,0,0,1-.3-1V75.59a1.89,1.89,0,0,1,.3-1,2.06,2.06,0,0,1,.8-.75,2.18,2.18,0,0,1,1.11-.28h10v1.73H82.56a.64.64,0,0,0-.45.17.55.55,0,0,0-.18.43v6.9a.54.54,0,0,0,.18.42.64.64,0,0,0,.45.17h9.72v1.73h-10Z"/><path class="cls-6" d="M96.22,85.05a2.18,2.18,0,0,1-1.11-.28,2.3,2.3,0,0,1-.8-.75,1.94,1.94,0,0,1-.3-1V75.59a1.89,1.89,0,0,1,.3-1,2.06,2.06,0,0,1,.8-.75,2.18,2.18,0,0,1,1.11-.28H104a2.18,2.18,0,0,1,1.11.28,2.3,2.3,0,0,1,.8.75,1.94,1.94,0,0,1,.3,1V83a1.89,1.89,0,0,1-.3,1,2.06,2.06,0,0,1-.8.75,2.18,2.18,0,0,1-1.11.28Zm0-1.74H104a.4.4,0,0,0,.29-.12.38.38,0,0,0,.12-.28V75.63a.38.38,0,0,0-.12-.28.4.4,0,0,0-.29-.12h-7.7a.44.44,0,0,0-.3.12.39.39,0,0,0-.13.28v7.28a.35.35,0,0,0,.13.28A.42.42,0,0,0,96.27,83.31Z"/><path class="cls-6" d="M108.11,85.05V73.48h1.83v9.83h10.38V85H108.11Z"/><path class="cls-6" d="M121.34,75.58a1.89,1.89,0,0,1,.3-1,2.06,2.06,0,0,1,.8-.75,2.18,2.18,0,0,1,1.11-.28h7.79a2.27,2.27,0,0,1,1.93,1,1.94,1.94,0,0,1,.3,1v9.47h-1.85V81h-8.53v4h-1.83V75.58Zm10.37,3.69V75.63a.38.38,0,0,0-.12-.28.4.4,0,0,0-.29-.12h-7.7a.44.44,0,0,0-.3.12.39.39,0,0,0-.13.28v3.64Z"/><path class="cls-6" d="M140.45,85.05V73.5h10a2.27,2.27,0,0,1,1.93,1,1.94,1.94,0,0,1,.3,1V83a1.89,1.89,0,0,1-.3,1.05,2.09,2.09,0,0,1-.81.75,2.24,2.24,0,0,1-1.12.28h-10Zm2.24-1.74h7.72a.4.4,0,0,0,.29-.12.38.38,0,0,0,.12-.28V75.63a.38.38,0,0,0-.12-.28.4.4,0,0,0-.29-.12h-7.72a.4.4,0,0,0-.29.12.38.38,0,0,0-.12.28v7.28a.38.38,0,0,0,.12.28A.4.4,0,0,0,142.69,83.31Z"/><path class="cls-6" d="M154.6,85.05V73.5h11.2v1.73h-9.35v3.18H164v1.73h-7.52v3.18h9.35v1.73Z"/><path class="cls-6" d="M177.06,85.05V75.23h-5.19V73.5h12.22v1.73H178.9v9.82Z"/><path class="cls-6" d="M185.4,85.05V73.5h11.2v1.73h-9.35v3.18h7.52v1.73h-7.52v3.18h9.35v1.73Z"/><path class="cls-6" d="M200.56,85.05a2.18,2.18,0,0,1-1.11-.28,2.3,2.3,0,0,1-.8-.75,1.92,1.92,0,0,1-.3-1V75.59a1.89,1.89,0,0,1,.3-1,2.14,2.14,0,0,1,.8-.75,2.18,2.18,0,0,1,1.11-.28h10v1.73h-9.72a.64.64,0,0,0-.45.17.55.55,0,0,0-.18.43v6.9a.54.54,0,0,0,.18.42.64.64,0,0,0,.45.17h9.72v1.73h-10Z"/><path class="cls-6" d="M212.31,85.05V73.5h2.19l8.18,9.21V73.5h1.85V85.05h-2.19l-8.2-9.23v9.23Z"/><path class="cls-6" d="M228.59,85.05a2.18,2.18,0,0,1-1.11-.28,2.3,2.3,0,0,1-.8-.75,1.92,1.92,0,0,1-.3-1V75.59a1.89,1.89,0,0,1,.3-1,2.14,2.14,0,0,1,.8-.75,2.18,2.18,0,0,1,1.11-.28h7.8a2.18,2.18,0,0,1,1.11.28,2.3,2.3,0,0,1,.8.75,1.94,1.94,0,0,1,.3,1V83a1.89,1.89,0,0,1-.3,1,2.06,2.06,0,0,1-.8.75,2.18,2.18,0,0,1-1.11.28Zm0-1.74h7.7a.4.4,0,0,0,.29-.12.38.38,0,0,0,.12-.28V75.63a.38.38,0,0,0-.12-.28.38.38,0,0,0-.29-.12h-7.7a.44.44,0,0,0-.3.12.39.39,0,0,0-.13.28v7.28a.35.35,0,0,0,.13.28A.44.44,0,0,0,228.64,83.31Z"/><path class="cls-6" d="M240.49,85.05V73.48h1.83v9.83H252.7V85H240.49Z"/><path class="cls-6" d="M255.86,85.05a2.18,2.18,0,0,1-1.11-.28A2.3,2.3,0,0,1,254,84a1.92,1.92,0,0,1-.3-1V75.59a1.89,1.89,0,0,1,.3-1,2.14,2.14,0,0,1,.8-.75,2.18,2.18,0,0,1,1.11-.28h7.8a2.18,2.18,0,0,1,1.11.28,2.3,2.3,0,0,1,.8.75,1.94,1.94,0,0,1,.3,1V83a1.89,1.89,0,0,1-.3,1,2.06,2.06,0,0,1-.8.75,2.18,2.18,0,0,1-1.11.28Zm0-1.74h7.7a.4.4,0,0,0,.29-.12.38.38,0,0,0,.12-.28V75.63a.38.38,0,0,0-.12-.28.38.38,0,0,0-.29-.12h-7.7a.44.44,0,0,0-.3.12.39.39,0,0,0-.13.28v7.28a.35.35,0,0,0,.13.28A.44.44,0,0,0,255.91,83.31Z"/><path class="cls-6" d="M269.94,85.05a2.18,2.18,0,0,1-1.11-.28A2.3,2.3,0,0,1,268,84a1.92,1.92,0,0,1-.3-1V75.59a1.89,1.89,0,0,1,.3-1,2.14,2.14,0,0,1,.8-.75,2.18,2.18,0,0,1,1.11-.28h7.79a2.27,2.27,0,0,1,1.93,1,1.94,1.94,0,0,1,.3,1v.69H278.1v-.64a.38.38,0,0,0-.12-.28.4.4,0,0,0-.29-.12H270a.44.44,0,0,0-.3.12.39.39,0,0,0-.13.28v7.28a.35.35,0,0,0,.13.28.42.42,0,0,0,.3.12h7.7a.4.4,0,0,0,.29-.12.38.38,0,0,0,.12-.28V80.47h-2.88V78.72H280V83a1.89,1.89,0,0,1-.3,1,2.09,2.09,0,0,1-.81.75,2.24,2.24,0,0,1-1.12.28Z"/><path class="cls-6" d="M281.77,85.05V73.5h1.83V85.05Z"/><path class="cls-6" d="M285.48,75.58a1.89,1.89,0,0,1,.3-1,2.06,2.06,0,0,1,.8-.75,2.18,2.18,0,0,1,1.11-.28h7.79a2.27,2.27,0,0,1,1.93,1,1.94,1.94,0,0,1,.3,1v9.47h-1.85V81h-8.54v4h-1.83V75.58Zm10.37,3.69V75.63a.38.38,0,0,0-.12-.28.4.4,0,0,0-.29-.12h-7.7a.44.44,0,0,0-.3.12.39.39,0,0,0-.13.28v3.64Z"/></g></g></svg>