<?xml version="1.0" encoding="utf-8"?>
<!-- Generator: Adobe Illustrator 24.2.1, SVG Export Plug-In . SVG Version: 6.00 Build 0)  -->
<svg version="1.1" id="Layer_1" xmlns="http://www.w3.org/2000/svg" xmlns:xlink="http://www.w3.org/1999/xlink" x="0px" y="0px"
	 viewBox="0 0 612 612" style="enable-background:new 0 0 612 612;" xml:space="preserve">
<style type="text/css">
	.st0{fill:#999B9E;stroke:#2E3192;stroke-width:1.4;stroke-miterlimit:10;}
	.st1{fill:url(#SVGID_1_);}
	.st2{fill:url(#SVGID_2_);}
	.st3{fill:url(#SVGID_3_);}
	.st4{fill:url(#SVGID_4_);}
	.st5{fill:url(#SVGID_5_);}
	.st6{fill:url(#SVGID_6_);}
	.st7{fill:#101029;}
</style>
<g>
	<g>
		<g>
			<path class="st0" d="M152.18,242.39v-50.11h-27.58v-8.84h64.9v8.84h-27.58v50.11H152.18z"/>
			<path class="st0" d="M201.71,240.92c-1.77-0.98-3.2-2.28-4.28-3.89c-1.08-1.61-1.62-3.37-1.62-5.28v-26.2
				c0-1.91,0.54-3.67,1.62-5.28c1.08-1.61,2.51-2.91,4.28-3.89c1.77-0.98,3.71-1.47,5.81-1.47h29.75c2.16,0,4.13,0.49,5.9,1.47
				c1.77,0.98,3.18,2.28,4.24,3.89c1.05,1.61,1.58,3.37,1.58,5.28v17.52h-43.45v8.43c0,0.55,0.23,1.02,0.68,1.43
				c0.45,0.41,0.98,0.61,1.58,0.61h41.19v8.84h-41.46C205.42,242.39,203.48,241.9,201.71,240.92z M205.54,214.8h33.62v-9.01
				c0-0.54-0.21-1.02-0.63-1.43c-0.42-0.41-0.93-0.61-1.53-0.61h-29.21c-0.6,0-1.13,0.2-1.58,0.61c-0.45,0.41-0.68,0.89-0.68,1.43
				V214.8z"/>
			<path class="st0" d="M264.08,240.92c-1.77-0.98-3.2-2.28-4.28-3.89c-1.08-1.61-1.62-3.37-1.62-5.28v-26.2
				c0-1.91,0.54-3.67,1.62-5.28c1.08-1.61,2.51-2.91,4.28-3.89c1.77-0.98,3.71-1.47,5.81-1.47h41.28v8.84h-41.01
				c-0.6,0-1.13,0.2-1.58,0.61c-0.45,0.41-0.68,0.89-0.68,1.43v25.71c0,0.55,0.23,1.02,0.68,1.43c0.45,0.41,0.98,0.61,1.58,0.61
				h41.19v8.84H269.9C267.79,242.39,265.85,241.9,264.08,240.92z"/>
			<path class="st0" d="M321.1,242.39v-63.05h9.74v15.56h31.73c2.1,0,4.04,0.49,5.81,1.47c1.77,0.98,3.2,2.28,4.28,3.89
				c1.08,1.61,1.62,3.37,1.62,5.28v36.85h-9.74v-36.6c0-0.54-0.23-1.02-0.68-1.43c-0.45-0.41-0.98-0.61-1.58-0.61h-29.21
				c-0.6,0-1.13,0.2-1.58,0.61c-0.45,0.41-0.68,0.89-0.68,1.43v36.6H321.1z"/>
			<path class="st0" d="M381.67,194.08c0-1.96,0.53-3.75,1.58-5.36c1.05-1.61,2.46-2.89,4.24-3.85c1.77-0.95,3.74-1.43,5.9-1.43
				h41.38c2.16,0,4.15,0.48,5.95,1.43c1.8,0.96,3.23,2.24,4.28,3.85c1.05,1.61,1.58,3.4,1.58,5.36v48.31h-9.83v-20.63h-45.34v20.63
				h-9.73V194.08z M436.75,212.92v-18.59c0-0.54-0.21-1.02-0.63-1.43c-0.42-0.41-0.93-0.61-1.53-0.61h-40.92
				c-0.6,0-1.13,0.2-1.58,0.61c-0.45,0.41-0.68,0.89-0.68,1.43v18.59H436.75z"/>
			<path class="st0" d="M456.58,242.39v-58.95h9.74v58.95H456.58z"/>
		</g>
	</g>
	<g>
		<linearGradient id="SVGID_1_" gradientUnits="userSpaceOnUse" x1="124.5928" y1="210.8701" x2="466.3125" y2="210.8701">
			<stop  offset="0.1352" style="stop-color:#4372B8;stop-opacity:0.9"/>
			<stop  offset="0.2943" style="stop-color:#3A52A4"/>
			<stop  offset="0.4407" style="stop-color:#293693;stop-opacity:0.94"/>
			<stop  offset="0.7071" style="stop-color:#1D1A55"/>
			<stop  offset="0.8465" style="stop-color:#101029"/>
		</linearGradient>
		<path class="st1" d="M152.18,242.39v-50.11h-27.58v-8.84h64.9v8.84h-27.58v50.11H152.18z"/>
		<linearGradient id="SVGID_2_" gradientUnits="userSpaceOnUse" x1="124.5928" y1="210.8701" x2="466.3125" y2="210.8701">
			<stop  offset="0.1352" style="stop-color:#4372B8;stop-opacity:0.9"/>
			<stop  offset="0.2943" style="stop-color:#3A52A4"/>
			<stop  offset="0.4407" style="stop-color:#293693;stop-opacity:0.94"/>
			<stop  offset="0.7071" style="stop-color:#1D1A55"/>
			<stop  offset="0.8465" style="stop-color:#101029"/>
		</linearGradient>
		<path class="st2" d="M201.71,240.92c-1.77-0.98-3.2-2.28-4.28-3.89c-1.08-1.61-1.62-3.37-1.62-5.28v-26.2
			c0-1.91,0.54-3.67,1.62-5.28c1.08-1.61,2.51-2.91,4.28-3.89c1.77-0.98,3.71-1.47,5.81-1.47h29.75c2.16,0,4.13,0.49,5.9,1.47
			c1.77,0.98,3.18,2.28,4.24,3.89c1.05,1.61,1.58,3.37,1.58,5.28v17.52h-43.45v8.43c0,0.55,0.23,1.02,0.68,1.43
			c0.45,0.41,0.98,0.61,1.58,0.61h41.19v8.84h-41.46C205.42,242.39,203.48,241.9,201.71,240.92z M205.54,214.8h33.62v-9.01
			c0-0.54-0.21-1.02-0.63-1.43c-0.42-0.41-0.93-0.61-1.53-0.61h-29.21c-0.6,0-1.13,0.2-1.58,0.61c-0.45,0.41-0.68,0.89-0.68,1.43
			V214.8z"/>
		<linearGradient id="SVGID_3_" gradientUnits="userSpaceOnUse" x1="124.5928" y1="210.8701" x2="466.3125" y2="210.8701">
			<stop  offset="0.1352" style="stop-color:#4372B8;stop-opacity:0.9"/>
			<stop  offset="0.2943" style="stop-color:#3A52A4"/>
			<stop  offset="0.4407" style="stop-color:#293693;stop-opacity:0.94"/>
			<stop  offset="0.7071" style="stop-color:#1D1A55"/>
			<stop  offset="0.8465" style="stop-color:#101029"/>
		</linearGradient>
		<path class="st3" d="M264.08,240.92c-1.77-0.98-3.2-2.28-4.28-3.89c-1.08-1.61-1.62-3.37-1.62-5.28v-26.2
			c0-1.91,0.54-3.67,1.62-5.28c1.08-1.61,2.51-2.91,4.28-3.89c1.77-0.98,3.71-1.47,5.81-1.47h41.28v8.84h-41.01
			c-0.6,0-1.13,0.2-1.58,0.61c-0.45,0.41-0.68,0.89-0.68,1.43v25.71c0,0.55,0.23,1.02,0.68,1.43c0.45,0.41,0.98,0.61,1.58,0.61
			h41.19v8.84H269.9C267.79,242.39,265.85,241.9,264.08,240.92z"/>
		<linearGradient id="SVGID_4_" gradientUnits="userSpaceOnUse" x1="124.5928" y1="210.8701" x2="466.3125" y2="210.8701">
			<stop  offset="0.1352" style="stop-color:#4372B8;stop-opacity:0.9"/>
			<stop  offset="0.2943" style="stop-color:#3A52A4"/>
			<stop  offset="0.4407" style="stop-color:#293693;stop-opacity:0.94"/>
			<stop  offset="0.7071" style="stop-color:#1D1A55"/>
			<stop  offset="0.8465" style="stop-color:#101029"/>
		</linearGradient>
		<path class="st4" d="M321.1,242.39v-63.05h9.74v15.56h31.73c2.1,0,4.04,0.49,5.81,1.47c1.77,0.98,3.2,2.28,4.28,3.89
			c1.08,1.61,1.62,3.37,1.62,5.28v36.85h-9.74v-36.6c0-0.54-0.23-1.02-0.68-1.43c-0.45-0.41-0.98-0.61-1.58-0.61h-29.21
			c-0.6,0-1.13,0.2-1.58,0.61c-0.45,0.41-0.68,0.89-0.68,1.43v36.6H321.1z"/>
		<linearGradient id="SVGID_5_" gradientUnits="userSpaceOnUse" x1="124.5928" y1="210.8701" x2="466.3125" y2="210.8701">
			<stop  offset="0.1352" style="stop-color:#4372B8;stop-opacity:0.9"/>
			<stop  offset="0.2943" style="stop-color:#3A52A4"/>
			<stop  offset="0.4407" style="stop-color:#293693;stop-opacity:0.94"/>
			<stop  offset="0.7071" style="stop-color:#1D1A55"/>
			<stop  offset="0.8465" style="stop-color:#101029"/>
		</linearGradient>
		<path class="st5" d="M381.67,194.08c0-1.96,0.53-3.75,1.58-5.36c1.05-1.61,2.46-2.89,4.24-3.85c1.77-0.95,3.74-1.43,5.9-1.43
			h41.38c2.16,0,4.15,0.48,5.95,1.43c1.8,0.96,3.23,2.24,4.28,3.85c1.05,1.61,1.58,3.4,1.58,5.36v48.31h-9.83v-20.63h-45.34v20.63
			h-9.73V194.08z M436.75,212.92v-18.59c0-0.54-0.21-1.02-0.63-1.43c-0.42-0.41-0.93-0.61-1.53-0.61h-40.92
			c-0.6,0-1.13,0.2-1.58,0.61c-0.45,0.41-0.68,0.89-0.68,1.43v18.59H436.75z"/>
		<linearGradient id="SVGID_6_" gradientUnits="userSpaceOnUse" x1="124.5928" y1="210.8701" x2="466.3125" y2="210.8701">
			<stop  offset="0.1352" style="stop-color:#4372B8;stop-opacity:0.9"/>
			<stop  offset="0.2943" style="stop-color:#3A52A4"/>
			<stop  offset="0.4407" style="stop-color:#293693;stop-opacity:0.94"/>
			<stop  offset="0.7071" style="stop-color:#1D1A55"/>
			<stop  offset="0.8465" style="stop-color:#101029"/>
		</linearGradient>
		<path class="st6" d="M456.58,242.39v-58.95h9.74v58.95H456.58z"/>
	</g>
</g>
<g>
	<g>
		<path class="st7" d="M177.05,263.69v-11.55h11.2v1.73h-9.35v3.18h7.52v1.73h-7.52v3.18h9.35v1.73H177.05z"/>
		<path class="st7" d="M192.15,263.69c-0.41,0-0.78-0.09-1.11-0.28c-0.33-0.19-0.6-0.44-0.8-0.75c-0.2-0.32-0.3-0.67-0.3-1.05v-0.67
			h1.83v0.63c0,0.11,0.04,0.2,0.13,0.28c0.08,0.08,0.18,0.12,0.3,0.12h7.7c0.11,0,0.21-0.04,0.29-0.12s0.12-0.17,0.12-0.28v-2.37
			c0-0.12-0.04-0.21-0.12-0.29s-0.18-0.11-0.29-0.11h-7.75c-0.41,0-0.78-0.09-1.11-0.28s-0.6-0.44-0.8-0.75
			c-0.2-0.32-0.3-0.67-0.3-1.05v-2.47c0-0.39,0.1-0.74,0.3-1.05c0.2-0.32,0.46-0.57,0.8-0.75c0.33-0.19,0.7-0.28,1.11-0.28h7.81
			c0.41,0,0.78,0.09,1.11,0.28c0.33,0.19,0.6,0.44,0.8,0.75s0.3,0.67,0.3,1.05v0.67h-1.85v-0.63c0-0.11-0.04-0.2-0.12-0.28
			c-0.08-0.08-0.18-0.12-0.29-0.12h-7.7c-0.11,0-0.21,0.04-0.3,0.12c-0.08,0.08-0.13,0.17-0.13,0.28v2.37
			c0,0.12,0.04,0.21,0.13,0.29c0.08,0.07,0.18,0.11,0.3,0.11h7.75c0.41,0,0.78,0.09,1.11,0.28c0.33,0.19,0.6,0.44,0.8,0.75
			c0.2,0.32,0.3,0.67,0.3,1.05v2.47c0,0.39-0.1,0.74-0.3,1.05s-0.46,0.57-0.8,0.75c-0.33,0.19-0.7,0.28-1.11,0.28H192.15z"/>
		<path class="st7" d="M206.2,263.69c-0.41,0-0.78-0.09-1.11-0.28c-0.33-0.19-0.6-0.44-0.8-0.75c-0.2-0.32-0.3-0.67-0.3-1.05v-7.38
			c0-0.39,0.1-0.74,0.3-1.05c0.2-0.32,0.46-0.57,0.8-0.75c0.33-0.19,0.7-0.28,1.11-0.28h9.98v1.73h-9.72
			c-0.18,0-0.33,0.06-0.45,0.17c-0.12,0.11-0.18,0.25-0.18,0.43v6.9c0,0.17,0.06,0.31,0.18,0.42c0.12,0.11,0.27,0.17,0.45,0.17h9.72
			v1.73H206.2z"/>
		<path class="st7" d="M220.12,263.69c-0.41,0-0.78-0.09-1.11-0.28c-0.33-0.19-0.6-0.44-0.8-0.75c-0.2-0.32-0.3-0.67-0.3-1.05v-7.38
			c0-0.39,0.1-0.74,0.3-1.05c0.2-0.32,0.46-0.57,0.8-0.75c0.33-0.19,0.7-0.28,1.11-0.28h7.8c0.41,0,0.78,0.09,1.11,0.28
			c0.33,0.19,0.6,0.44,0.8,0.75c0.2,0.32,0.3,0.67,0.3,1.05v7.38c0,0.39-0.1,0.74-0.3,1.05c-0.2,0.32-0.46,0.57-0.8,0.75
			c-0.33,0.19-0.7,0.28-1.11,0.28H220.12z M220.17,261.95h7.7c0.11,0,0.21-0.04,0.29-0.12s0.12-0.17,0.12-0.28v-7.28
			c0-0.11-0.04-0.2-0.12-0.28c-0.08-0.08-0.18-0.12-0.29-0.12h-7.7c-0.11,0-0.21,0.04-0.3,0.12c-0.08,0.08-0.13,0.17-0.13,0.28v7.28
			c0,0.11,0.04,0.2,0.13,0.28S220.05,261.95,220.17,261.95z"/>
		<path class="st7" d="M232.01,263.69v-11.57h1.83v9.83h10.38v1.73H232.01z"/>
		<path class="st7" d="M245.24,254.22c0-0.39,0.1-0.74,0.3-1.05c0.2-0.32,0.46-0.57,0.8-0.75c0.33-0.19,0.7-0.28,1.11-0.28h7.79
			c0.41,0,0.78,0.09,1.12,0.28c0.34,0.19,0.61,0.44,0.81,0.75c0.2,0.32,0.3,0.67,0.3,1.05v9.47h-1.85v-4.04h-8.53v4.04h-1.83V254.22
			z M255.61,257.91v-3.64c0-0.11-0.04-0.2-0.12-0.28c-0.08-0.08-0.18-0.12-0.29-0.12h-7.7c-0.11,0-0.21,0.04-0.3,0.12
			c-0.08,0.08-0.13,0.17-0.13,0.28v3.64H255.61z"/>
		<path class="st7" d="M264.35,263.69v-11.55h9.99c0.41,0,0.78,0.09,1.12,0.28c0.34,0.19,0.61,0.44,0.81,0.75
			c0.2,0.32,0.3,0.67,0.3,1.05v7.38c0,0.39-0.1,0.74-0.3,1.05c-0.2,0.32-0.47,0.57-0.81,0.75c-0.34,0.19-0.71,0.28-1.12,0.28H264.35
			z M266.59,261.95h7.72c0.11,0,0.21-0.04,0.29-0.12s0.12-0.17,0.12-0.28v-7.28c0-0.11-0.04-0.2-0.12-0.28
			c-0.08-0.08-0.18-0.12-0.29-0.12h-7.72c-0.11,0-0.21,0.04-0.29,0.12c-0.08,0.08-0.12,0.17-0.12,0.28v7.28
			c0,0.11,0.04,0.2,0.12,0.28C266.38,261.91,266.48,261.95,266.59,261.95z"/>
		<path class="st7" d="M278.5,263.69v-11.55h11.2v1.73h-9.35v3.18h7.52v1.73h-7.52v3.18h9.35v1.73H278.5z"/>
		<path class="st7" d="M300.96,263.69v-9.82h-5.19v-1.73h12.22v1.73h-5.19v9.82H300.96z"/>
		<path class="st7" d="M309.3,263.69v-11.55h11.2v1.73h-9.35v3.18h7.52v1.73h-7.52v3.18h9.35v1.73H309.3z"/>
		<path class="st7" d="M324.46,263.69c-0.41,0-0.78-0.09-1.11-0.28c-0.33-0.19-0.6-0.44-0.8-0.75s-0.3-0.67-0.3-1.05v-7.38
			c0-0.39,0.1-0.74,0.3-1.05s0.46-0.57,0.8-0.75c0.33-0.19,0.7-0.28,1.11-0.28h9.98v1.73h-9.72c-0.18,0-0.33,0.06-0.45,0.17
			c-0.12,0.11-0.18,0.25-0.18,0.43v6.9c0,0.17,0.06,0.31,0.18,0.42c0.12,0.11,0.27,0.17,0.45,0.17h9.72v1.73H324.46z"/>
		<path class="st7" d="M336.21,263.69v-11.55h2.19l8.18,9.21v-9.21h1.85v11.55h-2.19l-8.2-9.23v9.23H336.21z"/>
		<path class="st7" d="M352.49,263.69c-0.41,0-0.78-0.09-1.11-0.28c-0.33-0.19-0.6-0.44-0.8-0.75s-0.3-0.67-0.3-1.05v-7.38
			c0-0.39,0.1-0.74,0.3-1.05s0.46-0.57,0.8-0.75c0.33-0.19,0.7-0.28,1.11-0.28h7.8c0.41,0,0.78,0.09,1.11,0.28
			c0.33,0.19,0.6,0.44,0.8,0.75c0.2,0.32,0.3,0.67,0.3,1.05v7.38c0,0.39-0.1,0.74-0.3,1.05c-0.2,0.32-0.46,0.57-0.8,0.75
			c-0.33,0.19-0.7,0.28-1.11,0.28H352.49z M352.54,261.95h7.7c0.11,0,0.21-0.04,0.29-0.12s0.12-0.17,0.12-0.28v-7.28
			c0-0.11-0.04-0.2-0.12-0.28c-0.08-0.08-0.17-0.12-0.29-0.12h-7.7c-0.11,0-0.21,0.04-0.3,0.12c-0.08,0.08-0.13,0.17-0.13,0.28v7.28
			c0,0.11,0.04,0.2,0.13,0.28S352.43,261.95,352.54,261.95z"/>
		<path class="st7" d="M364.39,263.69v-11.57h1.83v9.83h10.38v1.73H364.39z"/>
		<path class="st7" d="M379.76,263.69c-0.41,0-0.78-0.09-1.11-0.28c-0.33-0.19-0.6-0.44-0.8-0.75s-0.3-0.67-0.3-1.05v-7.38
			c0-0.39,0.1-0.74,0.3-1.05s0.46-0.57,0.8-0.75c0.33-0.19,0.7-0.28,1.11-0.28h7.8c0.41,0,0.78,0.09,1.11,0.28
			c0.33,0.19,0.6,0.44,0.8,0.75c0.2,0.32,0.3,0.67,0.3,1.05v7.38c0,0.39-0.1,0.74-0.3,1.05c-0.2,0.32-0.46,0.57-0.8,0.75
			c-0.33,0.19-0.7,0.28-1.11,0.28H379.76z M379.81,261.95h7.7c0.11,0,0.21-0.04,0.29-0.12s0.12-0.17,0.12-0.28v-7.28
			c0-0.11-0.04-0.2-0.12-0.28c-0.08-0.08-0.17-0.12-0.29-0.12h-7.7c-0.11,0-0.21,0.04-0.3,0.12c-0.08,0.08-0.13,0.17-0.13,0.28v7.28
			c0,0.11,0.04,0.2,0.13,0.28S379.7,261.95,379.81,261.95z"/>
		<path class="st7" d="M393.84,263.69c-0.41,0-0.78-0.09-1.11-0.28c-0.33-0.19-0.6-0.44-0.8-0.75s-0.3-0.67-0.3-1.05v-7.38
			c0-0.39,0.1-0.74,0.3-1.05s0.46-0.57,0.8-0.75c0.33-0.19,0.7-0.28,1.11-0.28h7.79c0.41,0,0.78,0.09,1.12,0.28
			c0.34,0.19,0.61,0.44,0.81,0.75c0.2,0.32,0.3,0.67,0.3,1.05v0.69H402v-0.64c0-0.11-0.04-0.2-0.12-0.28
			c-0.08-0.08-0.18-0.12-0.29-0.12h-7.7c-0.11,0-0.21,0.04-0.3,0.12c-0.08,0.08-0.13,0.17-0.13,0.28v7.28c0,0.11,0.04,0.2,0.13,0.28
			s0.18,0.12,0.3,0.12h7.7c0.11,0,0.21-0.04,0.29-0.12s0.12-0.17,0.12-0.28v-2.45h-2.88v-1.75h4.73v4.25c0,0.39-0.1,0.74-0.3,1.05
			c-0.2,0.32-0.47,0.57-0.81,0.75c-0.34,0.19-0.71,0.28-1.12,0.28H393.84z"/>
		<path class="st7" d="M405.67,263.69v-11.55h1.83v11.55H405.67z"/>
		<path class="st7" d="M409.38,254.22c0-0.39,0.1-0.74,0.3-1.05c0.2-0.32,0.46-0.57,0.8-0.75c0.33-0.19,0.7-0.28,1.11-0.28h7.79
			c0.41,0,0.78,0.09,1.12,0.28c0.34,0.19,0.61,0.44,0.81,0.75c0.2,0.32,0.3,0.67,0.3,1.05v9.47h-1.85v-4.04h-8.54v4.04h-1.83V254.22
			z M419.75,257.91v-3.64c0-0.11-0.04-0.2-0.12-0.28c-0.08-0.08-0.18-0.12-0.29-0.12h-7.7c-0.11,0-0.21,0.04-0.3,0.12
			c-0.08,0.08-0.13,0.17-0.13,0.28v3.64H419.75z"/>
	</g>
</g>
</svg>
