<svg xmlns="http://www.w3.org/2000/svg" xmlns:xlink="http://www.w3.org/1999/xlink" viewBox="0 0 579.15 425.19"><defs><style>.cls-1{fill:url(#Gradiente_sem_nome);}.cls-2{fill:url(#Gradiente_sem_nome_2);}.cls-3{fill:url(#Gradiente_sem_nome_3);}.cls-4{fill:#808285;}.cls-5,.cls-7{fill:#a7a9ac;}.cls-6{fill:#1c75bc;}.cls-7,.cls-8{stroke:#939598;stroke-miterlimit:10;stroke-width:2px;}.cls-8{fill:url(#Gradiente_sem_nome_4);}.cls-9{fill:url(#Gradiente_sem_nome_5);}.cls-10{fill:url(#Gradiente_sem_nome_6);}.cls-11{fill:url(#Gradiente_sem_nome_7);}.cls-12{fill:url(#Gradiente_sem_nome_8);}</style><linearGradient id="Gradiente_sem_nome" x1="20.12" y1="251.98" x2="283.44" y2="251.98" gradientTransform="matrix(1, 0, 0, -1, 0, 381.71)" gradientUnits="userSpaceOnUse"><stop offset="0" stop-color="#d7f0fc"/><stop offset="0.18" stop-color="#c9e6f5"/><stop offset="0.46" stop-color="#a9d3e8"/><stop offset="0.8" stop-color="#79b7d2"/><stop offset="1" stop-color="#5aa6c4"/></linearGradient><linearGradient id="Gradiente_sem_nome_2" x1="5.71" y1="31.08" x2="252.12" y2="31.08" gradientTransform="matrix(1, 0, 0, -1, 0, 381.71)" gradientUnits="userSpaceOnUse"><stop offset="0" stop-color="#d7f0fc"/><stop offset="0.14" stop-color="#cee8f5"/><stop offset="0.37" stop-color="#b6d8e9"/><stop offset="0.66" stop-color="#90c1d8"/><stop offset="1" stop-color="#59a6c4"/></linearGradient><linearGradient id="Gradiente_sem_nome_3" x1="47.9" y1="165.06" x2="131.04" y2="165.06" gradientTransform="matrix(1, 0, 0, -1, 0, 381.71)" gradientUnits="userSpaceOnUse"><stop offset="0.43" stop-color="#d4effc"/><stop offset="0.65" stop-color="#a8cfe3"/><stop offset="1" stop-color="#59a6c4"/></linearGradient><linearGradient id="Gradiente_sem_nome_4" x1="108.54" y1="298.81" x2="152.45" y2="298.81" gradientTransform="matrix(1, 0, 0, -1, 0, 381.71)" gradientUnits="userSpaceOnUse"><stop offset="0" stop-color="#e1f4fd"/><stop offset="0.2" stop-color="#def1fa"/><stop offset="0.36" stop-color="#d4e8f4"/><stop offset="0.51" stop-color="#c3ddeb"/><stop offset="0.65" stop-color="#abcfe1"/><stop offset="0.79" stop-color="#8cbdd5"/><stop offset="0.93" stop-color="#67abc8"/><stop offset="0.96" stop-color="#59a6c4"/></linearGradient><linearGradient id="Gradiente_sem_nome_5" x1="422.04" y1="123.97" x2="579.15" y2="123.97" gradientTransform="matrix(1, 0, 0, -1, 0, 381.71)" gradientUnits="userSpaceOnUse"><stop offset="0" stop-color="#d7f0fc"/><stop offset="0.17" stop-color="#c8e3f2"/><stop offset="0.5" stop-color="#a0cadf"/><stop offset="0.96" stop-color="#61a9c6"/><stop offset="1" stop-color="#59a6c4"/></linearGradient><linearGradient id="Gradiente_sem_nome_6" x1="506.9" y1="128.33" x2="536.58" y2="128.33" gradientTransform="matrix(1, 0, 0, -1, 0, 381.71)" gradientUnits="userSpaceOnUse"><stop offset="0" stop-color="#d7f0fc"/><stop offset="1" stop-color="#59a6c4"/></linearGradient><linearGradient id="Gradiente_sem_nome_7" x1="540.83" y1="123.68" x2="557.67" y2="123.68" gradientTransform="matrix(1, 0, 0, -1, 0, 381.71)" gradientUnits="userSpaceOnUse"><stop offset="0" stop-color="#d9f1fd"/><stop offset="1" stop-color="#59a6c4"/></linearGradient><linearGradient id="Gradiente_sem_nome_8" x1="308.88" y1="2.37" x2="433.44" y2="2.37" gradientTransform="matrix(1, 0, 0, -1, 0, 381.71)" gradientUnits="userSpaceOnUse"><stop offset="0" stop-color="#d7f0fc"/><stop offset="0.14" stop-color="#d0eaf7"/><stop offset="0.34" stop-color="#bedded"/><stop offset="0.58" stop-color="#a1cbdf"/><stop offset="0.83" stop-color="#79b4cf"/><stop offset="1" stop-color="#59a6c4"/></linearGradient></defs><title>Layer 2</title><g id="Camada_2" data-name="Camada 2"><g id="Camada_1-2" data-name="Camada 1"><g id="Layer_2" data-name="Layer 2"><path class="cls-1" d="M77.4,14.51a116.48,116.48,0,0,1,37-13C149-4.28,177.11,7.66,195.48,15.47,212.2,22.58,223.35,27.32,234.84,39c3.07,3.12,26,27,26.4,59,.18,12.36-2.88,33.6-2.88,33.6l22.56,33.12a13.42,13.42,0,0,1,2.4,5.76c.06.39,1,6.91-3.36,11-2.4,2.28-5.3,2.78-8.64,3.36-6.07,1.05-7.86-.65-9.6,1,0,0-1.57,1.45,0,13.92.92,1.65,1.79,3.88,1,5.76-1.12,2.56-4.43,2.31-5.28,4.8-.72,2.11,1.42,3,1.44,6.24,0,3.77-2.78,6.95-3.84,8.16-2,2.25-3.2,2.41-3.84,4.32s-.07,3.27.48,5.28c.34,1.25,2,7.24,1.92,11a15.52,15.52,0,0,1-4.8,10.56c-1.7,1.58-5.41,4.14-16.8,3.36-5.47-.38-11.73-1.45-27.36-7.2-6.08-2.24-14-5.16-24.48-10.08-9.68-4.53-15.5-7.92-22.08-11.52a478.76,478.76,0,0,0-54.72-25.92c-7-2.74-7.23-2.26-31.68-10.56,0,0-6.11-1.93-16.32-5.77a28.39,28.39,0,0,1-3.42-1.57c-.66-.38-1.38-.82-1.38-.82s-1.34-.87-2.62-1.81c-12.57-9.28-19.46-31.79-19.46-31.79C22.76,133.72,16.12,112,23.16,84.59a108.24,108.24,0,0,1,21.6-41.76A120.71,120.71,0,0,1,77.4,14.51Z"/><path class="cls-2" d="M52,278.51c-3.73,2.58-3.08,6.2-6.24,15.84-2.85,8.71-6.25,14.51-11.52,23.52-7.61,13-9.2,11.22-14.4,21.12-4.54,8.65-6.41,15.87-9.12,26.4-2.35,9.13-4.22,16.37-4.8,25.92a100.64,100.64,0,0,0,3.84,33.88h242.4a176.79,176.79,0,0,0-18.72-28.6A150.87,150.87,0,0,0,211.8,374c-5.28-4.42-7-5.18-11.52-9.6-6.27-6.14-10-11.58-14.88-18.72-5.12-7.49-8.58-13.62-12-19.68-.8-1.42-4.49-8-6.72-12.48-3.77-7.64-6.26-13.37-7.59-21-1.65-9.5.09-14.27-3-15.94-2.66-1.45-7.37.27-8.64,2.88-.18.37-.28,2.65-.48,7.2,0,.88-.07,1.74-.21,2.93s-.22,1.1-.49,3.28c-.11.84-.2,1.89-.25,3.39h0V304h0s1.73,5.31,0,8.16c-.52.86-1.9,2.4-9.12,2.88a60.81,60.81,0,0,1-14.88-1c-7.7-1.3-10.49-1.92-15.84-2.88-13.11-2.36-15.49-2.09-21.6-4.32-6.66-2.42-10.17-3.71-12-7.2-3.2-6.13,2.89-11.27,0-16.8C69.48,276.86,57.94,274.37,52,278.51Z"/><polygon class="cls-3" points="47.9 184.06 58.2 198.35 61.56 215.63 61.56 241.55 75.96 241.55 87.48 249.23 104.76 249.23 110.52 243.95 128.91 243.95 131.04 216.64 115.32 208.91 47.9 184.06"/><path class="cls-4" d="M124.9,302.78a37.07,37.07,0,0,0,4.7-5.14,20.8,20.8,0,0,0,4-9.25c.39-2.7.07-5-.65-9.71-.38-2.49-.59-3.1-1.6-7.94-2-9.58-2.24-12.14-3.2-15.62-.58-2.07-.81-3.07-1.36-5.52-.71-3.12-1.18-5.41-1.56-8-.51-3.44-.6-7.38-.8-15.28,0-.14,0-.47,0-.91,0-.77,0-1.39.09-1.93a32.87,32.87,0,0,1,.79-4.35c.83-3.7.83-4.58,1.35-4.68.33-.06.89.18,1.83,1.69a31.17,31.17,0,0,0-1.21,5.92,38.18,38.18,0,0,0-.1,6c0,.44,0,.79.07,1,.56,7.68.84,11.51,1.32,14.8,0,.24.07.46.11.7.36,2.27.72,4.24,1,5.91.53,2.76,1,4.87,1.15,5.58,1.64,7.58,1.24,8.26,2.87,15.94.44,2.06,1,4.37,1.57,7.92a31.77,31.77,0,0,1,.68,5.62,18.19,18.19,0,0,1-1.61,7.76c-.92,2-2.18,3.46-4.68,6.43-1.12,1.33-1.91,2.26-3.14,3.5-.89.89-1.63,1.56-2.24,2.1"/><polyline class="cls-5" points="122.97 301.05 120.18 315.84 126.88 315.76 137.13 263.2 146.03 222.54 137.13 218.11 129.07 268.87 122.97 301.05"/><path class="cls-4" d="M133.72,311.42a37.06,37.06,0,0,0,5.34-4.59,21.06,21.06,0,0,0,5.17-8.79c.72-2.66.69-5,.54-9.82-.08-2.55-.21-3.18-.63-8.17-.83-9.86-.74-12.46-1.28-16.07-.32-2.15-.43-3.18-.69-5.7-.32-3.22-.51-5.58-.57-8.21-.08-3.51.3-7.49,1.08-15.43,0-.14,0-.47.1-.91.1-.77.21-1.39.33-1.93a31.47,31.47,0,0,1,1.33-4.27c1.29-3.62,1.39-4.49,1.93-4.53.34,0,.87.29,1.63,1.92a31.55,31.55,0,0,0-1.94,5.8,39,39,0,0,0-.84,6q0,.67-.06,1.05c-.38,7.77-.58,11.66-.5,15,0,.25,0,.47,0,.72.08,2.33.2,4.35.31,6.06.19,2.83.4,5,.47,5.74.7,7.81.23,8.44.91,16.35.18,2.12.43,4.5.59,8.15a33.23,33.23,0,0,1,0,5.73,18.47,18.47,0,0,1-2.57,7.6c-1.17,1.87-2.6,3.21-5.48,5.88-1.29,1.19-2.19,2-3.58,3.13-1,.79-1.83,1.36-2.5,1.83"/><polygon class="cls-5" points="148.94 224.82 141.87 272.09 134.07 315.84 139.95 315.77 148.94 266.81 156.75 228.94 148.94 224.82"/><polyline class="cls-6" points="22.69 86.51 14.52 86.51 14.52 96.59 21.2 96.59"/><path class="cls-5" d="M14.52,94.19A12.63,12.63,0,0,0,7.8,97.55c-2,2-4,5.7-2.88,19.2a118.44,118.44,0,0,0,2.4,15.84c3.75,17,5.62,25.47,7.68,32.64.15.53.29,1,.45,1.53,1.49,5,2.85,9.22,4.05,12.84,2,6,3.61,10.52,4.15,12,5.77,16.34,5.26,18,11,34.56,1.55,4.44,3.36,9.4,5.76,17.13,2.63,8.48,3.06,10.92,3.26,12.33a48.27,48.27,0,0,1-.38,18.07c-1.08,4.81-3,8.65-6.72,16.32-1.68,3.43-2.87,5.84-4.8,9.12-4.68,7.92-6.92,9.33-7.36,13.69-.47,4.58,1.43,8.67,2,9.17a.56.56,0,0,1,.13.18c.35.79-1.1,2.62-2,2.66-1.75.08-4.84-5.88-4.3-11.7.43-4.62,2.86-5.89,8.26-14.48a86.29,86.29,0,0,0,7.2-13.44,54,54,0,0,0,4.49-22.38c-.19-6.21-1.62-11.31-4.63-21.5-1.6-5.43-2.21-6.71-5.83-17.15-7.17-20.66-8.51-26.32-11.57-33.72-1.82-4.41-2.62-6.55-4.53-11.81C11.15,172,9.45,167,7.83,161.41,5.67,153.91,4.1,145.1,1,127.49c0-.31-.19-1-.33-2-.25-1.73-.4-3.14-.49-4.37A83.69,83.69,0,0,1,.15,111c.21-6.12.32-9.18,1-11s3.11-7.37,13.44-11C14.52,90.67,14.52,92.43,14.52,94.19Z"/><polygon class="cls-6" points="22.17 324.01 28.44 318.35 33.72 321.18 24.8 329.53 22.17 324.01"/><polyline class="cls-4" points="90.04 249.5 90.93 249.5 100.57 249.5 101.39 311.01 91.39 308.93"/><path class="cls-5" d="M95.18,257.75c-12,.27-15.6-.54-17.93,1.57s-1.48,5.41-.75,7.31c5.6.35,11.68.58,18.18.58,6.73,0,13-.22,18.78-.58.85-2.29,1.7-6-1-8.15C110.11,256.58,106.84,257.49,95.18,257.75Z"/><path class="cls-5" d="M96,294.24c-12,.27-15.6-.54-17.93,1.57s-1.48,5.41-.75,7.31c5.6.35,11.68.58,18.18.58,6.73,0,13-.22,18.78-.58.85-2.29,1.7-6-1-8.15C110.9,293.07,107.63,294,96,294.24Z"/><path class="cls-5" d="M96,276c-12,.27-15.6-.54-17.93,1.57s-1.48,5.41-.75,7.31c5.6.35,11.68.58,18.18.58,6.73,0,13-.22,18.78-.58.85-2.29,1.7-6-1-8.15C110.9,274.83,107.63,275.74,96,276Z"/><polygon class="cls-7" points="116.24 51.99 126.99 49.3 128.72 39.9 141.58 39.9 141.58 50.65 151.76 56.22 160.01 50.65 167.88 61.21 161.16 67.74 163.66 78.68 172.88 80.41 172.88 93.46 162.12 93.46 157.52 102.87 162.32 110.82 151.56 119.68 144.56 113.05 134.28 115.54 133.32 125.14 119.12 124.18 119.12 113.62 109.52 108.63 102.03 114.01 93.39 103.74 100.68 96.34 98 86.55 87.44 84.25 88.78 70.42 98.96 70.81 104.33 61.21 98.96 53.14 109.32 44.7 116.24 51.99"/><path class="cls-8" d="M119.88,64.09a21,21,0,0,1,30,8.06,22.6,22.6,0,0,1,1.92,16.13c-.32,1.24-3,10.84-12.67,15a22.09,22.09,0,0,1-23-3.65c-.63-.55-8.87-8-7.3-19.39C110.21,69.63,118.91,64.62,119.88,64.09Z"/><path class="cls-9" d="M422,321.23a37.84,37.84,0,0,0,9.46,14.86,38.73,38.73,0,0,0,22.22,10.34h0c1.66.33,5.54-8.74,10.8-13,5.94-4.76,9.57-.07,16.56-5,5.13-3.65,5.1-7.54,10.8-10.08a19,19,0,0,1,8.64-1.44c18.3.18,40.23-16.45,46.08-20.88,8-6.09,13.71-8,13.68-12.24,0-3.83-4.06-6.33-4.32-6.48-4.37-2.62-10.28.84-16.56,4.32-5.88,3.25-7.24,5.21-10.21,7a27.57,27.57,0,0,1-3.47,1.65c-4.68,1.73-13.23.16-17.28-5-2.17-2.78-1.88-5.1-1.53-20.15.38-16.36.2-14.66.36-17.41a60.17,60.17,0,0,1,6.93-25.8c2.66-4.91,10-14,18-24,6.75-8.38,10.13-12.7,10.81-19.25.1-.95.81-7.9-2.16-9.36-2.72-1.34-7.16,2.57-11.52,6.48-3.72,3.33-6.75,6.67-12.24,13.68a247.66,247.66,0,0,0-15.84,22.32c-3.63,5.86-3,6-5,8.64-4.35,5.63-8.11,7.22-15.84,13.68-4.57,3.81-7.12,5.51-9.36,8.64-5,7-6.88,12.17-13,25.92C453,280,450,283,450.84,283.79c3.62,3.25,51.06-47.66,72.72-41.76,4.29,1.17,9.93,5.22,19.44,5,3.25-.06,7.66-.63,10.76,2.18,1.72,1.56,1.76,3,2.92,5.74,2.11,4.92,7.35,12.65,13.68,13,3.68.18,7.83-2.16,8.64-5s-1.67-5-5-10.08c-7-10.54-4.5-13.17-9.36-18-3.78-3.75-8.76-4.9-18.72-7.2,0,0-11.63-2.68-20.88-2.88C509.08,224.41,464.05,258.66,422,321.23Z"/><path class="cls-10" d="M531.94,240.64c5.11,5.4,4.7,13,4.58,14.42-.23,3-1,3.66-1.45,8.57s.23,6.6-.9,7.43c-2,1.48-7.88-.87-10.62-5.27-3.84-6.16,1.9-12.63-1.43-16.26-3.7-4-12.87,1.27-14.86-1.86-1.57-2.49,2.17-9,7.65-11.4C521.05,233.59,528.13,236.6,531.94,240.64Z"/><path class="cls-11" d="M551.64,244.2c.59,3.4,1.49,8,2.88,13.39,2.31,8.92,3.78,11.49,2.88,13.39-1.59,3.36-9.58,2.46-13.68-4.12-3.57-5.72-3.86-15.19-.72-23.68"/><path class="cls-5" d="M434.4,338.09c-8.61-8.37-10-12-14.45-11s-8.29,5.82-10.34,8.77A158.09,158.09,0,0,0,435,362.67c3.67-2.31,9.26-6.43,10.29-11.08C446.24,347.45,442.77,346.23,434.4,338.09Z"/><path class="cls-4" d="M124.25,305.38c-1.44,1.28-2.18,1.87-2.58,3.17a6,6,0,0,0,.27,4.19.31.31,0,0,1,0,.09c.12.38-.77,1-1.25,1-.9-.13-2-3-1.27-5.51.59-2,1.93-2.31,5.37-5.56"/><polygon class="cls-12" points="308.88 424.84 377.28 361.92 402.48 333.84 433.44 365.52 404.64 404.4 391.68 424.84 308.88 424.84"/></g></g></g></svg>