<?xml version="1.0" encoding="utf-8"?>
<!-- Generator: Adobe Illustrator 24.2.1, SVG Export Plug-In . SVG Version: 6.00 Build 0)  -->
<svg version="1.1" xmlns="http://www.w3.org/2000/svg" xmlns:xlink="http://www.w3.org/1999/xlink" x="0px" y="0px"
	 viewBox="0 0 2000 1000" style="enable-background:new 0 0 2000 1000;" xml:space="preserve">
<style type="text/css">
	.st0{fill:url(#SVGID_1_);}
	.st1{fill:url(#SVGID_2_);}
	.st2{fill:url(#SVGID_3_);}
	.st3{fill:#808285;}
	.st4{fill:#A7A9AC;}
	.st5{fill:#1C75BC;}
	.st6{fill:#2E3192;}
	.st7{fill:#A7A9AC;stroke:#939598;stroke-width:2;stroke-miterlimit:10;}
	.st8{fill:url(#SVGID_4_);stroke:#939598;stroke-width:2;stroke-miterlimit:10;}
	.st9{fill:#00ABD1;}
	.st10{fill:url(#SVGID_5_);}
	.st11{fill:url(#SVGID_6_);}
	.st12{fill:url(#SVGID_7_);}
	.st13{fill:#6D6E71;}
	.st14{fill:url(#SVGID_8_);}
</style>
<g id="Layer_1">
</g>
<g id="Layer_2">
	<linearGradient id="SVGID_1_" gradientUnits="userSpaceOnUse" x1="85.1608" y1="437.8182" x2="348.482" y2="437.8182">
		<stop  offset="0" style="stop-color:#D7F0FC"/>
		<stop  offset="0.1802" style="stop-color:#C9E6F5"/>
		<stop  offset="0.4593" style="stop-color:#A9D3E8"/>
		<stop  offset="0.8008" style="stop-color:#79B7D2"/>
		<stop  offset="1" style="stop-color:#5AA6C4"/>
	</linearGradient>
	<path class="st0" d="M142.44,322.6c7.83-4.32,20.5-10.2,36.96-12.96c34.68-5.83,62.75,6.11,81.12,13.92
		c16.72,7.11,27.87,11.85,39.36,23.52c3.07,3.12,25.95,27,26.4,59.04c0.18,12.36-2.88,33.6-2.88,33.6
		c7.52,11.04,15.04,22.08,22.56,33.12c0.77,1.07,1.98,3.05,2.4,5.76c0.06,0.39,0.98,6.91-3.36,11.04c-2.4,2.28-5.3,2.78-8.64,3.36
		c-6.07,1.05-7.86-0.65-9.6,0.96c0,0-1.57,1.45,0,13.92c0.92,1.65,1.79,3.88,0.96,5.76c-1.12,2.56-4.43,2.31-5.28,4.8
		c-0.72,2.11,1.42,2.96,1.44,6.24c0.02,3.77-2.78,6.95-3.84,8.16c-1.97,2.25-3.2,2.41-3.84,4.32c-0.6,1.78-0.07,3.27,0.48,5.28
		c0.34,1.25,1.99,7.24,1.92,11.04c-0.08,4.17-2.25,8.19-4.8,10.56c-1.7,1.58-5.41,4.14-16.8,3.36c-5.47-0.38-11.73-1.45-27.36-7.2
		c-6.08-2.24-13.96-5.16-24.48-10.08c-9.68-4.53-15.5-7.92-22.08-11.52c-7.84-4.29-29.82-16.24-54.72-25.92
		c-7.05-2.74-7.23-2.26-31.68-10.56c0,0-6.11-1.93-16.32-5.77c0,0-1.99-0.75-3.42-1.57c-0.66-0.38-1.38-0.82-1.38-0.82
		s-1.34-0.87-2.62-1.81c-12.57-9.28-19.46-31.79-19.46-31.79c-5.68-18.55-12.32-40.23-5.28-67.68c5.47-21.32,16.36-35.22,21.6-41.76
		C121.42,336.42,134.05,327.57,142.44,322.6z"/>
	<linearGradient id="SVGID_2_" gradientUnits="userSpaceOnUse" x1="70.7443" y1="658.7162" x2="317.16" y2="658.7162">
		<stop  offset="0" style="stop-color:#D7F0FC"/>
		<stop  offset="0.1417" style="stop-color:#CEE8F5"/>
		<stop  offset="0.3722" style="stop-color:#B6D8E9"/>
		<stop  offset="0.6628" style="stop-color:#90C1D8"/>
		<stop  offset="1" style="stop-color:#59A6C4"/>
	</linearGradient>
	<path class="st1" d="M117,586.6c-3.73,2.58-3.08,6.2-6.24,15.84c-2.85,8.71-6.25,14.51-11.52,23.52
		c-7.61,13.01-9.2,11.22-14.4,21.12c-4.54,8.65-6.41,15.87-9.12,26.4c-2.35,9.13-4.22,16.37-4.8,25.92
		c-0.46,7.64-0.27,19.5,3.84,33.88c80.8,0,161.6,0,242.4,0c-6.35-12.09-13.09-21.6-18.72-28.6c-4.49-5.58-11.2-13.86-21.6-22.56
		c-5.28-4.42-7-5.18-11.52-9.6c-6.27-6.14-9.99-11.58-14.88-18.72c-5.12-7.49-8.58-13.62-12-19.68c-0.8-1.42-4.49-7.97-6.72-12.48
		c-3.77-7.64-6.26-13.37-7.59-21.02c-1.65-9.5,0.09-14.27-2.97-15.94c-2.66-1.45-7.37,0.27-8.64,2.88c-0.18,0.37-0.28,2.65-0.48,7.2
		c-0.04,0.88-0.07,1.74-0.21,2.93c-0.14,1.17-0.22,1.1-0.49,3.28c-0.11,0.84-0.2,1.89-0.25,3.39c0,0,0,0,0,0c0,2.97,0,7.68,0,7.68
		l0,0h0c0.05,0,1.73,5.31,0,8.16c-0.52,0.86-1.9,2.4-9.12,2.88c-6.46,0.43-11.49-0.39-14.88-0.96c-7.7-1.3-10.49-1.92-15.84-2.88
		c-13.11-2.36-15.49-2.09-21.6-4.32c-6.66-2.42-10.17-3.71-12-7.2c-3.2-6.13,2.89-11.27,0-16.8
		C134.52,584.95,122.98,582.46,117,586.6z"/>
	<linearGradient id="SVGID_3_" gradientUnits="userSpaceOnUse" x1="112.938" y1="524.7344" x2="196.0803" y2="524.7344">
		<stop  offset="0.4299" style="stop-color:#D4EFFC"/>
		<stop  offset="0.649" style="stop-color:#A8CFE3"/>
		<stop  offset="1" style="stop-color:#59A6C4"/>
	</linearGradient>
	<polygon class="st2" points="112.94,492.15 123.24,506.44 126.6,523.72 126.6,549.64 141,549.64 152.52,557.32 169.8,557.32 
		175.56,552.04 193.95,552.04 196.08,524.73 180.36,517 	"/>
	<path class="st3" d="M189.94,610.87c0.96-0.91,2.98-2.77,4.7-5.14c1.05-1.45,3.37-4.71,4.03-9.25c0.39-2.7,0.07-5.03-0.65-9.71
		c-0.38-2.49-0.59-3.1-1.6-7.94c-2-9.58-2.24-12.14-3.2-15.62c-0.58-2.07-0.81-3.07-1.36-5.52c-0.71-3.12-1.18-5.41-1.56-7.99
		c-0.51-3.44-0.6-7.38-0.8-15.28c0-0.14-0.01-0.47-0.01-0.91c0.01-0.77,0.04-1.39,0.09-1.93c0.13-1.37,0.35-2.37,0.79-4.35
		c0.83-3.7,0.83-4.58,1.35-4.68c0.33-0.06,0.89,0.18,1.83,1.69c-0.72,2.35-1.05,4.38-1.21,5.92c-0.27,2.56-0.16,4.7-0.1,6.02
		c0.02,0.44,0.05,0.79,0.07,1.04c0.56,7.68,0.84,11.51,1.32,14.8c0.04,0.24,0.07,0.46,0.11,0.7c0.36,2.27,0.72,4.24,1.04,5.91
		c0.53,2.76,1,4.87,1.15,5.58c1.64,7.58,1.24,8.26,2.87,15.94c0.44,2.06,0.96,4.37,1.57,7.92c0.66,3.9,0.69,5,0.68,5.62
		c-0.02,1.53-0.08,4.48-1.61,7.76c-0.92,1.98-2.18,3.46-4.68,6.43c-1.12,1.33-1.91,2.26-3.14,3.5c-0.89,0.89-1.63,1.56-2.24,2.1"/>
	<polyline class="st4" points="188.01,609.14 185.22,623.93 191.92,623.85 202.17,571.29 211.07,530.63 202.17,526.2 194.11,576.96 
		188.01,609.14 	"/>
	<path class="st3" d="M198.76,619.51c1.07-0.79,3.33-2.42,5.34-4.59c1.23-1.33,3.95-4.31,5.17-8.79c0.72-2.66,0.69-5.04,0.54-9.82
		c-0.08-2.55-0.21-3.18-0.63-8.17c-0.83-9.86-0.74-12.46-1.28-16.07c-0.32-2.15-0.43-3.18-0.69-5.7c-0.32-3.22-0.51-5.58-0.57-8.21
		c-0.08-3.51,0.3-7.49,1.08-15.43c0.01-0.14,0.05-0.47,0.1-0.91c0.1-0.77,0.21-1.39,0.33-1.93c0.29-1.36,0.64-2.33,1.33-4.27
		c1.29-3.62,1.39-4.49,1.93-4.53c0.34-0.02,0.87,0.29,1.63,1.92c-1.01,2.27-1.59,4.27-1.94,5.8c-0.58,2.53-0.74,4.7-0.84,6.03
		c-0.03,0.45-0.05,0.8-0.06,1.05c-0.38,7.77-0.58,11.66-0.5,15.02c0.01,0.25,0.01,0.47,0.02,0.72c0.08,2.33,0.2,4.35,0.31,6.06
		c0.19,2.83,0.4,5.01,0.47,5.74c0.7,7.81,0.23,8.44,0.91,16.35c0.18,2.12,0.43,4.5,0.59,8.15c0.18,4,0.07,5.1-0.01,5.73
		c-0.21,1.53-0.63,4.49-2.57,7.6c-1.17,1.87-2.6,3.21-5.48,5.88c-1.29,1.19-2.19,2.03-3.58,3.13c-1.01,0.79-1.83,1.36-2.5,1.83"/>
	<polygon class="st4" points="213.98,532.91 206.91,580.18 199.11,623.93 204.99,623.86 213.98,574.9 221.79,537.03 	"/>
	<polyline class="st5" points="87.73,394.6 79.56,394.6 79.56,404.68 86.24,404.68 	"/>
	<path class="st4" d="M79.56,402.28c-1.78,0.34-4.54,1.14-6.72,3.36c-1.96,2-4,5.7-2.88,19.2c0.65,7.8,1.92,13.66,2.4,15.84
		c3.75,16.98,5.62,25.47,7.68,32.64c0.15,0.53,0.29,1,0.45,1.53c1.49,4.95,2.85,9.22,4.05,12.84c1.97,5.96,3.61,10.52,4.15,12.04
		c5.77,16.34,5.26,18.01,11.04,34.56c1.55,4.44,3.36,9.4,5.76,17.13c2.63,8.48,3.06,10.92,3.26,12.33
		c0.5,3.44,1.41,10.08-0.38,18.07c-1.08,4.81-2.96,8.65-6.72,16.32c-1.68,3.43-2.87,5.84-4.8,9.12c-4.68,7.92-6.92,9.33-7.36,13.69
		c-0.47,4.58,1.43,8.67,1.96,9.17c0.01,0.01,0.08,0.07,0.13,0.18c0.35,0.79-1.1,2.62-2.04,2.66c-1.75,0.08-4.84-5.88-4.3-11.7
		c0.43-4.62,2.86-5.89,8.26-14.48c1.52-2.42,4.74-7.42,7.2-13.44c1.5-3.68,4.81-11.93,4.49-22.38c-0.19-6.21-1.62-11.31-4.63-21.5
		c-1.6-5.43-2.21-6.71-5.83-17.15c-7.17-20.66-8.51-26.32-11.57-33.72c-1.82-4.41-2.62-6.55-4.53-11.81
		c-2.44-6.71-4.14-11.66-5.76-17.28c-2.16-7.5-3.73-16.31-6.86-33.92c-0.05-0.31-0.19-1.05-0.33-2.03c-0.25-1.73-0.4-3.14-0.49-4.37
		c-0.24-3.13-0.16-5.45,0-10.08c0.21-6.12,0.32-9.18,0.96-11.04c0.68-1.95,3.11-7.37,13.44-11.04
		C79.56,398.76,79.56,400.52,79.56,402.28z"/>
	<path class="st3" d="M111.24,509.32"/>
	<path class="st3" d="M88.68,469.48"/>
	<path class="st3" d="M84.84,462.28"/>
	<polygon class="st5" points="87.21,632.1 93.48,626.44 98.76,629.27 89.84,637.62 	"/>
	<polyline class="st3" points="155.08,557.59 155.97,557.59 165.61,557.59 166.43,619.1 156.43,617.02 	"/>
	<path class="st6" d="M148.97,554.96"/>
	<path class="st4" d="M160.22,565.84c-12,0.27-15.6-0.54-17.93,1.57c-2.33,2.11-1.48,5.41-0.75,7.31c5.6,0.35,11.68,0.58,18.18,0.58
		c6.73,0.01,13.01-0.22,18.78-0.58c0.85-2.29,1.7-6.02-0.96-8.15C175.15,564.67,171.88,565.58,160.22,565.84z"/>
	<path class="st4" d="M161.01,602.33c-12,0.27-15.6-0.54-17.93,1.57c-2.33,2.11-1.48,5.41-0.75,7.31c5.6,0.35,11.68,0.58,18.18,0.58
		c6.73,0.01,13.01-0.22,18.78-0.58c0.85-2.29,1.7-6.02-0.96-8.15C175.94,601.16,172.67,602.07,161.01,602.33z"/>
	<path class="st4" d="M161.01,584.09c-12,0.27-15.6-0.54-17.93,1.57c-2.33,2.11-1.48,5.41-0.75,7.31c5.6,0.35,11.68,0.58,18.18,0.58
		c6.73,0.01,13.01-0.22,18.78-0.58c0.85-2.29,1.7-6.02-0.96-8.15C175.94,582.92,172.67,583.83,161.01,584.09z"/>
	<polygon class="st7" points="181.28,360.08 192.03,357.39 193.76,347.99 206.62,347.99 206.62,358.74 216.8,364.31 225.05,358.74 
		232.92,369.3 226.2,375.83 228.7,386.77 237.92,388.5 237.92,401.55 227.16,401.55 222.56,410.96 227.36,418.91 216.6,427.77 
		209.6,421.14 199.32,423.63 198.36,433.23 184.16,432.27 184.16,421.71 174.56,416.72 167.07,422.1 158.43,411.83 165.72,404.43 
		163.04,394.64 152.48,392.34 153.82,378.51 164,378.9 169.37,369.3 164,361.23 174.36,352.79 	"/>
	<linearGradient id="SVGID_4_" gradientUnits="userSpaceOnUse" x1="173.5874" y1="390.9907" x2="217.4945" y2="390.9907">
		<stop  offset="0" style="stop-color:#E1F4FD"/>
		<stop  offset="0.1957" style="stop-color:#DEF1FA"/>
		<stop  offset="0.3585" style="stop-color:#D4E8F4"/>
		<stop  offset="0.5095" style="stop-color:#C3DDEB"/>
		<stop  offset="0.6534" style="stop-color:#ABCFE1"/>
		<stop  offset="0.7922" style="stop-color:#8CBDD5"/>
		<stop  offset="0.9256" style="stop-color:#67ABC8"/>
		<stop  offset="0.9637" style="stop-color:#59A6C4"/>
	</linearGradient>
	<path class="st8" d="M184.92,372.18c1.21-0.76,7.86-4.77,16.32-2.69c8.65,2.13,12.7,9.03,13.63,10.75
		c3.96,7.31,2.37,14.36,1.92,16.13c-0.32,1.24-2.97,10.84-12.67,14.98c-7.58,3.23-16.66,1.92-23.04-3.65
		c-0.63-0.55-8.87-8-7.3-19.39C175.25,377.72,183.95,372.71,184.92,372.18z"/>
	<path class="st9" d="M379.8,728.68"/>
	<linearGradient id="SVGID_5_" gradientUnits="userSpaceOnUse" x1="487.08" y1="565.8304" x2="644.188" y2="565.8304">
		<stop  offset="0" style="stop-color:#D7F0FC"/>
		<stop  offset="0.1707" style="stop-color:#C8E3F2"/>
		<stop  offset="0.5014" style="stop-color:#A0CADF"/>
		<stop  offset="0.9554" style="stop-color:#61A9C6"/>
		<stop  offset="0.9991" style="stop-color:#59A6C4"/>
	</linearGradient>
	<path class="st10" d="M487.08,629.32c1.18,3.41,3.79,9.4,9.46,14.86c8.62,8.29,18.68,9.93,22.22,10.34c0,0,0,0,0,0
		c1.66,0.33,5.54-8.74,10.8-12.96c5.94-4.76,9.57-0.07,16.56-5.04c5.13-3.65,5.1-7.54,10.8-10.08c3.68-1.64,6.92-1.46,8.64-1.44
		c18.3,0.18,40.23-16.45,46.08-20.88c8.04-6.09,13.71-7.99,13.68-12.24c-0.03-3.83-4.06-6.33-4.32-6.48
		c-4.37-2.62-10.28,0.84-16.56,4.32c-5.88,3.25-7.24,5.21-10.21,6.99c0,0-1.78,1.02-3.47,1.65c-4.68,1.73-13.23,0.16-17.28-5.04
		c-2.17-2.78-1.88-5.1-1.53-20.15c0.38-16.36,0.2-14.66,0.36-17.41c0.68-12.13,4.05-20.48,6.93-25.8c2.66-4.91,10-14.03,17.99-23.95
		c6.75-8.38,10.13-12.7,10.81-19.25c0.1-0.95,0.81-7.9-2.16-9.36c-2.72-1.34-7.16,2.57-11.52,6.48c-3.72,3.33-6.75,6.67-12.24,13.68
		c-9.35,11.94-14.37,19.94-15.84,22.32c-3.63,5.86-3.01,6.01-5.04,8.64c-4.35,5.63-8.11,7.22-15.84,13.68
		c-4.57,3.81-7.12,5.51-9.36,8.64c-5,7-6.88,12.17-12.96,25.92c-5.01,11.32-8.09,14.32-7.2,15.12c3.62,3.25,51.06-47.66,72.72-41.76
		c4.29,1.17,9.93,5.22,19.44,5.04c3.25-0.06,7.66-0.63,10.76,2.18c1.72,1.56,1.76,3.02,2.92,5.74c2.11,4.92,7.35,12.65,13.68,12.96
		c3.68,0.18,7.83-2.16,8.64-5.04c0.79-2.8-1.67-5.01-5.04-10.08c-7.01-10.54-4.5-13.17-9.36-18c-3.78-3.75-8.76-4.9-18.72-7.2
		c0,0-11.63-2.68-20.88-2.88C574.12,532.5,529.09,566.75,487.08,629.32z"/>
	<linearGradient id="SVGID_6_" gradientUnits="userSpaceOnUse" x1="571.9479" y1="561.4702" x2="601.6248" y2="561.4702">
		<stop  offset="0" style="stop-color:#D7F0FC"/>
		<stop  offset="1" style="stop-color:#59A6C4"/>
	</linearGradient>
	<path class="st11" d="M596.98,548.73c5.11,5.4,4.7,12.99,4.58,14.42c-0.23,2.97-1.05,3.66-1.45,8.57c-0.4,4.93,0.23,6.6-0.9,7.43
		c-2,1.48-7.88-0.87-10.62-5.27c-3.84-6.16,1.9-12.63-1.43-16.26c-3.7-4.03-12.87,1.27-14.86-1.86c-1.57-2.49,2.17-9.01,7.65-11.4
		C586.09,541.68,593.17,544.69,596.98,548.73z"/>
	<linearGradient id="SVGID_7_" gradientUnits="userSpaceOnUse" x1="605.8699" y1="566.1198" x2="622.7057" y2="566.1198">
		<stop  offset="0" style="stop-color:#D9F1FD"/>
		<stop  offset="1" style="stop-color:#59A6C4"/>
	</linearGradient>
	<path class="st12" d="M616.68,552.29c0.59,3.4,1.49,8.03,2.88,13.39c2.31,8.92,3.78,11.49,2.88,13.39
		c-1.59,3.36-9.58,2.46-13.68-4.12c-3.57-5.72-3.86-15.19-0.72-23.68"/>
	<path class="st13" d="M652.68,681.88"/>
	<path class="st4" d="M499.44,646.18c-8.61-8.37-10.01-12.01-14.45-11.01c-4.45,1-8.29,5.82-10.34,8.77
		c3.38,4.52,7.26,9.22,11.72,13.94c4.62,4.89,9.24,9.16,13.7,12.88c3.67-2.31,9.26-6.43,10.29-11.08
		C511.28,655.54,507.81,654.32,499.44,646.18z"/>
	<path class="st3" d="M189.29,613.47c-1.44,1.28-2.18,1.87-2.58,3.17c-0.6,1.96,0.04,3.92,0.27,4.19c0.01,0.01,0.03,0.04,0.05,0.09
		c0.12,0.38-0.77,1.04-1.25,0.97c-0.9-0.13-2.01-3.02-1.27-5.51c0.59-1.98,1.93-2.31,5.37-5.56"/>
	<linearGradient id="SVGID_8_" gradientUnits="userSpaceOnUse" x1="373.9193" y1="687.433" x2="498.4793" y2="687.433">
		<stop  offset="0" style="stop-color:#D7F0FC"/>
		<stop  offset="0.1423" style="stop-color:#D0EAF7"/>
		<stop  offset="0.3423" style="stop-color:#BEDDED"/>
		<stop  offset="0.5765" style="stop-color:#A1CBDF"/>
		<stop  offset="0.8346" style="stop-color:#79B4CF"/>
		<stop  offset="1" style="stop-color:#59A6C4"/>
	</linearGradient>
	<polygon class="st14" points="373.92,732.93 442.32,670.01 467.52,641.93 498.48,673.61 469.68,712.49 456.72,732.93 	"/>
</g>
</svg>
